<svg width="248" height="93" viewBox="0 0 248 93" fill="none" xmlns="http://www.w3.org/2000/svg">
<path fill-rule="evenodd" clip-rule="evenodd" d="M46.3647 1C71.5673 1 92.2335 21.1621 92.2335 46.3647C92.2335 72.0714 71.5673 92.2335 46.3647 92.2335C21.1621 92.2335 1 72.0714 1 46.3647C1 21.1621 21.1621 1 46.3647 1Z" fill="#CAF0F8" stroke="#48CAE4" stroke-width="0.118087" stroke-miterlimit="22.9256"/>
<mask id="mask0_198_872" style="mask-type:alpha" maskUnits="userSpaceOnUse" x="0" y="0" width="93" height="93">
<path fill-rule="evenodd" clip-rule="evenodd" d="M46.3647 1C71.5673 1 92.2335 21.1621 92.2335 46.3647C92.2335 72.0714 71.5673 92.2335 46.3647 92.2335C21.1621 92.2335 1 72.0714 1 46.3647C1 21.1621 21.1621 1 46.3647 1Z" fill="#48CAE4" stroke="#48CAE4" stroke-width="0.118087" stroke-miterlimit="22.9256"/>
</mask>
<g mask="url(#mask0_198_872)">
<path d="M26.6973 44.9134L44.3773 19.5089V44.9134H26.6973ZM35.1506 40.4953H39.9573V33.5918L35.1506 40.4953ZM47.6923 44.9134C48.1343 43.8825 48.6131 42.0784 49.1288 39.5012C49.6445 36.9239 49.9023 34.3098 49.9023 31.6589C49.9023 29.008 49.654 26.2834 49.1575 23.4853C48.661 20.6871 48.1726 18.6253 47.6923 17.2998C49.9391 17.9625 52.1771 19.1959 54.4063 21C56.6354 22.8041 58.6414 24.958 60.4241 27.4616C62.2068 29.9653 63.6618 32.7178 64.7889 35.7192C65.916 38.7206 66.4788 41.7854 66.4773 44.9134H47.6923ZM53.4383 40.4953H61.6153C60.9891 37.6603 59.9666 35.0646 58.5478 32.7082C57.129 30.3518 55.6292 28.3453 54.0483 26.6884C54.1219 27.4616 54.1868 28.2628 54.2427 29.0919C54.2987 29.9211 54.3252 30.7767 54.3223 31.6589C54.3223 33.3893 54.2398 34.9909 54.0748 36.4637C53.9098 37.9364 53.6976 39.2803 53.4383 40.4953Z" fill="#023E8A"/>
<path d="M29.6256 56.4559C28.3364 55.4987 27.241 54.3116 26.3393 52.8949C25.4376 51.4781 24.8203 49.9222 24.4873 48.2271H68.6873C68.3558 49.9207 67.7392 51.4766 66.8375 52.8949C65.9359 54.3131 64.8397 55.5001 63.5491 56.4559C62.2584 57.4117 61.1379 58.2298 46.5873 58.2298C32.0367 58.2298 30.9147 57.4132 29.6256 56.4559Z" fill="#023E8A"/>
<path d="M0.475324 52.7808L-3.0137 57.0427C-4.19176 58.4817 -4.22263 60.5428 -3.0882 62.0165L17.3538 88.5714C17.9623 89.3618 18.8441 89.8964 19.8263 90.0702L45.8192 94.6707C46.302 94.7562 46.7964 94.7521 47.2778 94.6588L70.9641 90.0662C71.853 89.8939 72.6572 89.425 73.2451 88.7362L96.0194 62.0543C97.2801 60.5772 97.2978 58.4079 96.0612 56.9105L92.6265 52.7512C91.0222 50.8085 88.0431 50.8148 86.4471 52.7644L84.0281 55.7192C82.4277 57.6742 79.4382 57.6742 77.8378 55.7192L75.4322 52.7808C73.8318 50.8258 70.8424 50.8258 69.242 52.7808L66.8364 55.7192C65.236 57.6742 62.2465 57.6742 60.6462 55.7192L58.2406 52.7808C56.6402 50.8258 53.6507 50.8258 52.0503 52.7808L49.6447 55.7192C48.0443 57.6742 45.0549 57.6742 43.4545 55.7192L41.0489 52.7808C39.4485 50.8258 36.459 50.8258 34.8587 52.7808L32.4531 55.7192C30.8527 57.6742 27.8632 57.6742 26.2628 55.7192L23.8572 52.7808C22.2568 50.8258 19.2674 50.8258 17.667 52.7808L15.2614 55.7192C13.661 57.6742 10.6715 57.6742 9.07116 55.7192L6.66556 52.7808C5.06517 50.8258 2.07571 50.8258 0.475324 52.7808Z" fill="#48CAE4" stroke="#90E0EF" stroke-width="2"/>
<path d="M10.5088 47.407C9.92923 26.6616 27.7857 9.13659 48.5088 10.257C66.4463 11.2267 79.8569 23.6615 82.3088 41.457C85.1264 61.9062 69.6045 81.1179 49.0088 82.507C28.7092 83.8761 11.0771 67.7448 10.5088 47.407Z" stroke="#023E8A" stroke-width="5" stroke-dasharray="5 5"/>
<rect x="26.0166" y="59.3994" width="26.0006" height="21.4" transform="rotate(27 26.0166 59.3994)" fill="#48CAE4"/>
<path d="M27.3906 70.499L28.4161 76.3148M29.4416 82.1306L28.4161 76.3148M28.4161 76.3148L22.6003 77.3403M28.4161 76.3148L34.2319 75.2893" stroke="#8A0202" stroke-width="4" stroke-linecap="round"/>
<path d="M46.6006 82.6C68.4006 82.6 83.0506 62.05 82.5006 48.75" stroke="#023E8A" stroke-width="5.3"/>
<path d="M38.6796 82.1953L47.6521 75.5762L47.1685 89.4242L38.6796 82.1953Z" fill="#023E8A"/>
</g>
<path d="M114.196 39.7715L108.996 56.6172H103.473L111.31 35.2891H114.811L114.196 39.7715ZM118.502 56.6172L113.287 39.7715L112.614 35.2891H116.159L124.039 56.6172H118.502ZM118.297 48.6631V52.6328H107.355V48.6631H118.297ZM137.329 53.1016L143.276 57.8184L140.083 60.5137L134.238 55.7969L137.329 53.1016ZM143.525 45.5283V46.3926C143.525 48.0234 143.296 49.4883 142.837 50.7871C142.388 52.0762 141.743 53.1797 140.903 54.0977C140.073 55.0059 139.092 55.7041 137.959 56.1924C136.826 56.6709 135.576 56.9102 134.209 56.9102C132.832 56.9102 131.572 56.6709 130.43 56.1924C129.297 55.7041 128.311 55.0059 127.471 54.0977C126.641 53.1797 125.996 52.0762 125.537 50.7871C125.088 49.4883 124.863 48.0234 124.863 46.3926V45.5283C124.863 43.8975 125.088 42.4326 125.537 41.1338C125.996 39.835 126.636 38.7314 127.456 37.8232C128.286 36.9053 129.268 36.207 130.4 35.7285C131.543 35.2402 132.803 34.9961 134.18 34.9961C135.547 34.9961 136.797 35.2402 137.93 35.7285C139.072 36.207 140.059 36.9053 140.889 37.8232C141.729 38.7314 142.378 39.835 142.837 41.1338C143.296 42.4326 143.525 43.8975 143.525 45.5283ZM138.296 46.3926V45.499C138.296 44.4443 138.203 43.5166 138.018 42.7158C137.842 41.9053 137.578 41.2266 137.227 40.6797C136.875 40.1328 136.44 39.7227 135.923 39.4492C135.415 39.166 134.834 39.0244 134.18 39.0244C133.496 39.0244 132.9 39.166 132.393 39.4492C131.885 39.7227 131.46 40.1328 131.118 40.6797C130.776 41.2266 130.518 41.9053 130.342 42.7158C130.176 43.5166 130.093 44.4443 130.093 45.499V46.3926C130.093 47.4375 130.176 48.3652 130.342 49.1758C130.518 49.9766 130.776 50.6553 131.118 51.2119C131.47 51.7686 131.899 52.1885 132.407 52.4717C132.925 52.7549 133.525 52.8965 134.209 52.8965C134.863 52.8965 135.444 52.7549 135.952 52.4717C136.46 52.1885 136.885 51.7686 137.227 51.2119C137.578 50.6553 137.842 49.9766 138.018 49.1758C138.203 48.3652 138.296 47.4375 138.296 46.3926ZM157.87 35.2891H163.011V49.2197C163.011 50.8799 162.665 52.2861 161.971 53.4385C161.278 54.5811 160.306 55.4453 159.056 56.0312C157.806 56.6172 156.337 56.9102 154.647 56.9102C152.977 56.9102 151.507 56.6172 150.238 56.0312C148.978 55.4453 147.992 54.5811 147.279 53.4385C146.576 52.2861 146.224 50.8799 146.224 49.2197V35.2891H151.38V49.2197C151.38 50.0986 151.507 50.8164 151.761 51.373C152.015 51.9199 152.386 52.3203 152.875 52.5742C153.363 52.8281 153.954 52.9551 154.647 52.9551C155.35 52.9551 155.941 52.8281 156.42 52.5742C156.898 52.3203 157.259 51.9199 157.504 51.373C157.748 50.8164 157.87 50.0986 157.87 49.2197V35.2891ZM175.114 39.7715L169.914 56.6172H164.392L172.229 35.2891H175.73L175.114 39.7715ZM179.421 56.6172L174.206 39.7715L173.532 35.2891H177.077L184.958 56.6172H179.421ZM179.216 48.6631V52.6328H168.274V48.6631H179.216ZM198.482 49.3955H203.609C203.541 50.8799 203.14 52.1885 202.408 53.3213C201.676 54.4541 200.66 55.3379 199.361 55.9727C198.072 56.5977 196.549 56.9102 194.791 56.9102C193.365 56.9102 192.091 56.6709 190.968 56.1924C189.854 55.7139 188.907 55.0254 188.126 54.127C187.354 53.2285 186.763 52.1396 186.353 50.8604C185.953 49.5811 185.753 48.1406 185.753 46.5391V45.3818C185.753 43.7803 185.963 42.3398 186.383 41.0605C186.812 39.7715 187.418 38.6777 188.199 37.7793C188.99 36.8711 189.937 36.1777 191.041 35.6992C192.144 35.2207 193.37 34.9814 194.718 34.9814C196.573 34.9814 198.14 35.3135 199.42 35.9775C200.699 36.6416 201.69 37.5547 202.393 38.7168C203.096 39.8691 203.512 41.1826 203.638 42.6572H198.512C198.492 41.8564 198.355 41.1875 198.101 40.6504C197.847 40.1035 197.447 39.6934 196.9 39.4199C196.353 39.1465 195.626 39.0098 194.718 39.0098C194.083 39.0098 193.531 39.127 193.062 39.3613C192.594 39.5957 192.203 39.9668 191.89 40.4746C191.578 40.9824 191.344 41.6416 191.187 42.4521C191.041 43.2529 190.968 44.2197 190.968 45.3525V46.5391C190.968 47.6719 191.036 48.6387 191.173 49.4395C191.309 50.2402 191.529 50.8945 191.832 51.4023C192.135 51.9102 192.525 52.2861 193.004 52.5303C193.492 52.7646 194.088 52.8818 194.791 52.8818C195.572 52.8818 196.231 52.7598 196.768 52.5156C197.305 52.2617 197.721 51.8809 198.013 51.373C198.306 50.8555 198.463 50.1963 198.482 49.3955ZM205.341 48.8535V48.5459C205.341 47.3838 205.507 46.3145 205.839 45.3379C206.171 44.3516 206.66 43.4971 207.304 42.7744C207.949 42.0518 208.745 41.4902 209.692 41.0898C210.639 40.6797 211.733 40.4746 212.973 40.4746C214.223 40.4746 215.322 40.6797 216.269 41.0898C217.226 41.4902 218.027 42.0518 218.671 42.7744C219.316 43.4971 219.804 44.3516 220.136 45.3379C220.468 46.3145 220.634 47.3838 220.634 48.5459V48.8535C220.634 50.0059 220.468 51.0752 220.136 52.0615C219.804 53.0381 219.316 53.8926 218.671 54.625C218.027 55.3477 217.231 55.9092 216.284 56.3096C215.336 56.71 214.243 56.9102 213.002 56.9102C211.762 56.9102 210.663 56.71 209.706 56.3096C208.749 55.9092 207.949 55.3477 207.304 54.625C206.66 53.8926 206.171 53.0381 205.839 52.0615C205.507 51.0752 205.341 50.0059 205.341 48.8535ZM210.278 48.5459V48.8535C210.278 49.4492 210.322 50.0059 210.41 50.5234C210.497 51.041 210.644 51.4951 210.849 51.8857C211.054 52.2666 211.332 52.5645 211.684 52.7793C212.036 52.9941 212.475 53.1016 213.002 53.1016C213.52 53.1016 213.95 52.9941 214.291 52.7793C214.643 52.5645 214.921 52.2666 215.126 51.8857C215.331 51.4951 215.478 51.041 215.566 50.5234C215.654 50.0059 215.698 49.4492 215.698 48.8535V48.5459C215.698 47.9697 215.654 47.4277 215.566 46.9199C215.478 46.4023 215.331 45.9482 215.126 45.5576C214.921 45.1572 214.643 44.8447 214.291 44.6201C213.94 44.3955 213.5 44.2832 212.973 44.2832C212.455 44.2832 212.021 44.3955 211.669 44.6201C211.328 44.8447 211.054 45.1572 210.849 45.5576C210.644 45.9482 210.497 46.4023 210.41 46.9199C210.322 47.4277 210.278 47.9697 210.278 48.5459ZM228.196 40.7676V56.6172H223.245V40.7676H228.196ZM222.952 36.6807C222.952 35.9775 223.206 35.4014 223.714 34.9521C224.222 34.5029 224.881 34.2783 225.691 34.2783C226.502 34.2783 227.161 34.5029 227.669 34.9521C228.177 35.4014 228.431 35.9775 228.431 36.6807C228.431 37.3838 228.177 37.96 227.669 38.4092C227.161 38.8584 226.502 39.083 225.691 39.083C224.881 39.083 224.222 38.8584 223.714 38.4092C223.206 37.96 222.952 37.3838 222.952 36.6807ZM236.242 44.1514V56.6172H231.305V40.7676H235.934L236.242 44.1514ZM235.656 48.1504L234.499 48.1797C234.499 46.9688 234.645 45.8896 234.938 44.9424C235.231 43.9854 235.646 43.1748 236.183 42.5107C236.72 41.8467 237.36 41.3438 238.102 41.002C238.854 40.6504 239.689 40.4746 240.607 40.4746C241.339 40.4746 242.008 40.582 242.614 40.7969C243.229 41.0117 243.756 41.3584 244.196 41.8369C244.645 42.3154 244.987 42.9502 245.221 43.7412C245.465 44.5225 245.588 45.4893 245.588 46.6416V56.6172H240.622V46.627C240.622 45.9922 240.534 45.5088 240.358 45.1768C240.182 44.835 239.928 44.6006 239.596 44.4736C239.264 44.3467 238.859 44.2832 238.38 44.2832C237.873 44.2832 237.443 44.3809 237.091 44.5762C236.74 44.7715 236.457 45.0449 236.242 45.3965C236.037 45.7383 235.885 46.1436 235.788 46.6123C235.7 47.0811 235.656 47.5938 235.656 48.1504Z" fill="#023E8A"/>
</svg>
