<svg width="275" height="275" viewBox="0 0 275 275" fill="none" xmlns="http://www.w3.org/2000/svg">
<path fill-rule="evenodd" clip-rule="evenodd" d="M136.744 1C212.351 1 274.35 61.4863 274.35 137.094C274.35 214.214 212.351 274.7 136.744 274.7C61.1357 274.7 0.649414 214.214 0.649414 137.094C0.649414 61.4863 61.1357 1 136.744 1Z" fill="#CAF0F8" stroke="#48CAE4" stroke-width="0.354261" stroke-miterlimit="22.9256"/>
<mask id="mask0_205_900" style="mask-type:alpha" maskUnits="userSpaceOnUse" x="0" y="0" width="275" height="275">
<path fill-rule="evenodd" clip-rule="evenodd" d="M136.744 1C212.351 1 274.35 61.4863 274.35 137.094C274.35 214.214 212.351 274.7 136.744 274.7C61.1357 274.7 0.649414 214.214 0.649414 137.094C0.649414 61.4863 61.1357 1 136.744 1Z" fill="#48CAE4" stroke="#48CAE4" stroke-width="0.354261" stroke-miterlimit="22.9256"/>
</mask>
<g mask="url(#mask0_205_900)">
<path d="M77.7423 132.741L130.782 56.5272V132.741H77.7423ZM103.102 119.486H117.522V98.776L103.102 119.486ZM140.727 132.741C142.053 129.648 143.49 124.236 145.037 116.504C146.584 108.772 147.357 100.93 147.357 92.9772C147.357 85.0244 146.613 76.8508 145.123 68.4563C143.633 60.0617 142.168 53.8763 140.727 49.8999C147.468 51.8881 154.182 55.5883 160.869 61.0006C167.557 66.4129 173.575 72.8744 178.923 80.3853C184.271 87.8963 188.636 96.1538 192.017 105.158C195.398 114.162 197.087 123.357 197.082 132.741H140.727ZM157.965 119.486H182.496C180.618 110.981 177.55 103.194 173.294 96.1251C169.037 89.056 164.538 83.0363 159.795 78.0658C160.016 80.3853 160.211 82.7888 160.379 85.2763C160.547 87.7637 160.626 90.3307 160.617 92.9772C160.617 98.1685 160.37 102.973 159.875 107.391C159.38 111.81 158.743 115.841 157.965 119.486Z" fill="#023E8A"/>
<path d="M86.5271 167.368C82.6596 164.496 79.3733 160.935 76.6682 156.685C73.9632 152.435 72.1112 147.767 71.1123 142.682H203.712C202.718 147.763 200.868 152.43 198.163 156.685C195.458 160.94 192.169 164.501 188.298 167.368C184.426 170.236 181.064 172.69 137.412 172.69C93.7604 172.69 90.3946 170.24 86.5271 167.368Z" fill="#023E8A"/>
<path d="M-0.923645 156.342L-11.3907 169.128C-14.9249 173.445 -15.0175 179.628 -11.6142 184.049L49.7119 263.714C51.5373 266.085 54.1828 267.689 57.1294 268.211L135.108 282.012C136.557 282.269 138.04 282.256 139.484 281.976L210.543 268.199C213.209 267.682 215.622 266.275 217.386 264.209L285.708 184.163C289.491 179.732 289.544 173.224 285.834 168.732L275.53 156.254C270.717 150.425 261.78 150.445 256.992 156.293L249.735 165.158C244.933 171.022 235.965 171.022 231.164 165.158L223.947 156.342C219.146 150.478 210.177 150.478 205.376 156.342L198.16 165.158C193.358 171.022 184.39 171.022 179.589 165.158L172.372 156.342C167.571 150.478 158.603 150.478 153.801 156.342L146.585 165.158C141.783 171.022 132.815 171.022 128.014 165.158L120.797 156.342C115.996 150.478 107.027 150.478 102.226 156.342L95.0096 165.158C90.2084 171.022 81.24 171.022 76.4389 165.158L69.2221 156.342C64.4209 150.478 55.4525 150.478 50.6514 156.342L43.4346 165.158C38.6334 171.022 29.665 171.022 24.8638 165.158L17.6471 156.342C12.8459 150.478 3.87751 150.478 -0.923645 156.342Z" fill="#48CAE4" stroke="#90E0EF" stroke-width="6"/>
<path d="M29.175 140.22C27.4361 77.9839 81.0055 25.4088 143.175 28.7699C196.987 31.6793 237.219 68.9835 244.575 122.37C253.028 183.718 206.462 241.353 144.675 245.52C83.7761 249.627 30.8797 201.233 29.175 140.22Z" stroke="#023E8A" stroke-width="15" stroke-dasharray="15 15"/>
<rect x="75.6953" y="176.2" width="78.0018" height="64.2" transform="rotate(27 75.6953 176.2)" fill="#48CAE4"/>
<path d="M79.8193 209.5L82.8958 226.947M85.9722 244.394L82.8958 226.947M82.8958 226.947L65.4485 230.023M82.8958 226.947L100.343 223.87" stroke="#8A0202" stroke-width="12" stroke-linecap="round"/>
<path d="M137.449 245.8C202.849 245.8 246.799 184.15 245.149 144.25" stroke="#023E8A" stroke-width="15.9"/>
<path d="M113.687 244.585L140.605 224.728L139.154 266.272L113.687 244.585Z" fill="#023E8A"/>
</g>
</svg>
